<svg width="747" height="691" viewBox="0 0 747 691" fill="none" xmlns="http://www.w3.org/2000/svg">
<rect x="283" y="691" width="691" height="464" rx="232" transform="rotate(-90 283 691)" fill="#1E1F21"/>
<rect x="496" y="130.335" width="177" height="325" rx="30"/>
<path d="M581.462 162.025L569.427 144.865L580.842 136.859L592.811 153.926L599.244 149.415L587.283 132.361L598.749 124.32L610.831 141.548C612.697 140.617 614.455 139.717 616.26 138.873C621.402 136.516 626.704 134.866 632.377 134.363C649.229 132.84 658.662 149.557 654.498 162.675L653.869 164.675C655.347 164.371 656.668 163.999 658.016 163.843C667.73 162.718 675.461 166.109 681.119 174.112C683.402 177.3 685.143 180.843 686.272 184.598C689.068 194.096 686.489 202.352 680.369 209.758C676.994 213.838 672.937 217.155 668.648 220.212L667.031 221.346L679.284 238.818L668.115 246.651L655.925 229.271L649.427 233.828L661.613 251.203L650.163 259.234L637.956 241.828L617.206 256.381L608.707 244.263L615.615 239.418C619.811 236.475 620.134 234.649 617.163 230.407C606.314 214.937 595.463 199.467 584.612 183.994C582.383 180.816 580.657 180.412 577.365 182.532C574.685 184.26 572.114 186.165 569.492 187.993L568.179 188.914L559.927 177.148L581.462 162.025ZM639.676 220.592C639.867 220.563 639.99 220.583 640.064 220.531C645.486 216.54 651.062 212.728 656.27 208.474C659.636 205.737 661.824 201.983 662.069 197.429C662.589 187.874 655.374 182.053 646.324 184.958C643.282 185.933 640.348 187.477 637.636 189.187C633.413 191.843 629.422 194.861 625.336 197.734C624.972 197.99 624.641 198.293 624.257 198.608L639.676 220.592ZM615.922 186.722C620.494 183.515 625.021 180.556 629.307 177.278C633.954 173.721 635.16 166.866 632.349 161.78C629.165 156.019 624.622 154.299 618.151 156.463C611.945 158.552 607.097 162.857 601.704 166.444L615.922 186.722Z" fill="#1E1F21"/>
<rect x="427" y="165.337" width="177" height="325" rx="30" fill="url(#paint0_linear_68_196)"/>
<rect x="358" y="209.337" width="177" height="325" rx="30" fill="url(#paint1_linear_68_196)"/>
<circle cx="412" cy="287.337" r="29.225" stroke="#313131" stroke-width="1.55"/>
<path d="M399.537 291.346L400.293 291.167L399.537 291.346ZM399.564 282.738L400.319 282.921L399.564 282.738ZM424.465 282.817L423.709 282.996L424.465 282.817ZM424.437 291.426L423.682 291.242L424.437 291.426ZM416.352 299.3L416.524 300.058L416.352 299.3ZM407.571 299.272L407.747 298.515L407.571 299.272ZM407.649 274.863L407.821 275.621L407.649 274.863ZM416.431 274.891L416.607 274.134L416.431 274.891ZM400.293 291.167C399.652 288.453 399.662 285.631 400.319 282.921L398.809 282.554C398.094 285.502 398.084 288.572 398.78 291.524L400.293 291.167ZM423.709 282.996C424.349 285.71 424.34 288.532 423.682 291.242L425.192 291.609C425.908 288.661 425.918 285.591 425.221 282.639L423.709 282.996ZM416.181 298.543C413.405 299.171 410.519 299.162 407.747 298.515L407.394 300.029C410.395 300.729 413.519 300.739 416.524 300.058L416.181 298.543ZM407.821 275.621C410.596 274.992 413.483 275.001 416.254 275.648L416.607 274.134C413.607 273.434 410.482 273.424 407.477 274.105L407.821 275.621ZM407.747 298.515C404.032 297.649 401.149 294.797 400.293 291.167L398.78 291.524C399.775 295.741 403.117 299.031 407.394 300.029L407.747 298.515ZM416.524 300.058C420.807 299.088 424.171 295.819 425.192 291.609L423.682 291.242C422.803 294.866 419.902 297.7 416.181 298.543L416.524 300.058ZM416.254 275.648C419.969 276.515 422.852 279.366 423.709 282.996L425.221 282.639C424.226 278.422 420.884 275.132 416.607 274.134L416.254 275.648ZM407.477 274.105C403.194 275.076 399.831 278.344 398.809 282.554L400.319 282.921C401.199 279.297 404.1 276.464 407.821 275.621L407.477 274.105ZM415.731 300.308C415.738 298.209 415.744 296.715 415.903 295.581C416.059 294.471 416.348 293.823 416.836 293.347L415.752 292.234C414.92 293.044 414.545 294.077 414.365 295.365C414.187 296.629 414.184 298.249 414.177 300.303L415.731 300.308ZM423.972 290.748C421.875 290.741 420.226 290.734 418.939 290.9C417.631 291.068 416.582 291.426 415.752 292.234L416.836 293.347C417.327 292.869 417.996 292.588 419.137 292.441C420.299 292.292 421.827 292.295 423.967 292.302L423.972 290.748Z" fill="white"/>
<path d="M407.694 283.003L412.013 283.017M407.68 287.323L414.879 287.346" stroke="white" stroke-width="1.55396" stroke-linecap="round"/>
<circle cx="482" cy="287" r="29.225" stroke="#313131" stroke-width="1.55"/>
<path d="M490.239 276H474.067C472.363 276 471.371 277.925 472.359 279.313L477.927 287.13C478.433 287.84 478.705 288.691 478.705 289.563V294.736C478.705 296.539 480.166 298 481.969 298C483.772 298 485.233 296.539 485.233 294.736V289.625C485.233 288.715 485.529 287.829 486.077 287.102L491.913 279.358C492.954 277.977 491.969 276 490.239 276Z" stroke="white" stroke-width="1.57242" stroke-linecap="round" stroke-linejoin="round"/>
<circle cx="412" cy="372.337" r="29.225" stroke="#313131" stroke-width="1.55"/>
<path d="M411.833 359.337V360.789M407.513 380.865C410.384 381.187 413.282 381.187 416.154 380.865C416.133 381.144 416.089 381.421 416.022 381.693L415.904 382.175C415.533 383.683 414.355 384.858 412.85 385.217C412.182 385.377 411.485 385.377 410.817 385.217C409.312 384.858 408.134 383.683 407.763 382.175L407.644 381.693C407.577 381.421 407.533 381.144 407.513 380.865ZM403.207 367.473C404.008 364.518 406.272 362.159 409.173 361.218C410.956 360.64 412.895 360.639 414.675 361.227C417.524 362.168 419.706 364.495 420.47 367.409L421.312 370.62L421.987 373.677C422.195 374.619 422.478 375.587 422.627 376.54C422.653 376.705 422.667 376.874 422.667 377.047C422.667 378.587 421.587 379.914 420.085 380.22L419.554 380.328C414.459 381.366 409.208 381.366 404.113 380.328L403.582 380.22C402.08 379.914 401 378.587 401 377.047C401 376.874 401.013 376.705 401.039 376.54C401.188 375.587 401.471 374.619 401.679 373.677L402.354 370.62L403.207 367.473Z" stroke="white" stroke-width="1.57242" stroke-linecap="round"/>
<circle cx="482" cy="372.337" r="29.225" stroke="#313131" stroke-width="1.55"/>
<path d="M473 376.031H488.286C490.41 376.031 491.708 373.498 490.589 371.538L489.855 370.251C489.132 368.985 489.132 367.383 489.855 366.117L490.589 364.83C491.708 362.87 490.41 360.337 488.286 360.337L473 360.337L473 376.031ZM473 376.031L473 384.337" stroke="white" stroke-width="1.57242" stroke-linecap="round" stroke-linejoin="round"/>
<circle cx="412" cy="457.337" r="29.225" stroke="#313131" stroke-width="1.55"/>
<path d="M415.57 462.167C416.621 461.929 417.588 461.489 418.426 460.891L420.083 467.401C420.58 469.355 418.489 470.98 416.627 470.085L413.835 468.745C412.924 468.307 411.854 468.307 410.943 468.745L408.151 470.085C406.289 470.98 404.198 469.355 404.695 467.401L406.352 460.891C407.19 461.489 408.157 461.929 409.208 462.167M415.57 462.167C413.478 462.643 411.3 462.643 409.208 462.167M415.57 462.167C418.468 461.509 420.73 459.318 421.41 456.512C421.9 454.485 421.9 452.376 421.41 450.35C420.73 447.543 418.468 445.352 415.57 444.694C413.478 444.219 411.3 444.219 409.208 444.694C406.31 445.352 404.048 447.543 403.368 450.35C402.877 452.376 402.877 454.485 403.368 456.512C404.048 459.318 406.31 461.509 409.208 462.167" stroke="white" stroke-width="1.57242"/>
<circle cx="482" cy="457.337" r="29.225" stroke="#313131" stroke-width="1.55"/>
<path d="M473.844 454.87C470.064 454.87 467 457.885 467 461.604C467 465.323 470.064 468.337 473.844 468.337C473.849 468.337 473.853 468.337 473.858 468.337H486.55C486.552 468.337 486.554 468.337 486.556 468.337C491.956 468.337 496.333 464.031 496.333 458.718C496.333 453.405 491.956 449.099 486.556 449.099C482.562 449.099 479.127 451.454 477.609 454.83M473.844 454.87C474.737 454.87 475.589 455.038 476.37 455.344C476.843 455.528 477.396 455.305 477.609 454.83M473.844 454.87C472.882 454.87 471.967 455.065 471.136 455.418C470.581 454.504 470.259 453.421 470.259 452.26C470.259 448.989 472.813 446.337 475.963 446.337C478.534 446.337 480.707 448.103 481.42 450.531C479.748 451.548 478.411 453.047 477.609 454.83" stroke="white" stroke-width="1.57242"/>
<path d="M369.886 574.308C368.771 574.308 367.774 574.11 366.894 573.714C366.014 573.318 365.317 572.724 364.804 571.932C364.305 571.125 364.056 570.121 364.056 568.918V568.456H365.882V568.918C365.882 570.194 366.256 571.147 367.004 571.778C367.752 572.394 368.713 572.702 369.886 572.702C371.089 572.702 372.005 572.431 372.636 571.888C373.267 571.345 373.582 570.663 373.582 569.842C373.582 569.27 373.435 568.815 373.142 568.478C372.863 568.141 372.467 567.869 371.954 567.664C371.441 567.444 370.839 567.253 370.15 567.092L369.006 566.806C368.111 566.571 367.319 566.285 366.63 565.948C365.941 565.611 365.398 565.171 365.002 564.628C364.621 564.071 364.43 563.359 364.43 562.494C364.43 561.629 364.643 560.881 365.068 560.25C365.508 559.619 366.117 559.135 366.894 558.798C367.686 558.461 368.595 558.292 369.622 558.292C370.663 558.292 371.595 558.475 372.416 558.842C373.252 559.194 373.905 559.722 374.374 560.426C374.858 561.115 375.1 561.988 375.1 563.044V563.968H373.274V563.044C373.274 562.296 373.113 561.695 372.79 561.24C372.482 560.785 372.049 560.448 371.492 560.228C370.949 560.008 370.326 559.898 369.622 559.898C368.61 559.898 367.796 560.125 367.18 560.58C366.564 561.02 366.256 561.651 366.256 562.472C366.256 563.015 366.388 563.455 366.652 563.792C366.916 564.129 367.29 564.408 367.774 564.628C368.258 564.833 368.837 565.017 369.512 565.178L370.656 565.464C371.551 565.655 372.35 565.919 373.054 566.256C373.773 566.579 374.345 567.026 374.77 567.598C375.195 568.155 375.408 568.889 375.408 569.798C375.408 570.707 375.181 571.499 374.726 572.174C374.271 572.849 373.626 573.377 372.79 573.758C371.969 574.125 371.001 574.308 369.886 574.308ZM383.246 574.308C382.161 574.308 381.208 574.081 380.386 573.626C379.565 573.157 378.927 572.504 378.472 571.668C378.018 570.832 377.79 569.864 377.79 568.764V568.5C377.79 567.385 378.018 566.41 378.472 565.574C378.927 564.738 379.558 564.093 380.364 563.638C381.171 563.169 382.095 562.934 383.136 562.934C384.148 562.934 385.043 563.154 385.82 563.594C386.598 564.019 387.206 564.635 387.646 565.442C388.086 566.249 388.306 567.195 388.306 568.28V569.072H379.528C379.572 570.231 379.946 571.14 380.65 571.8C381.354 572.445 382.234 572.768 383.29 572.768C384.214 572.768 384.926 572.555 385.424 572.13C385.923 571.705 386.304 571.199 386.568 570.612L388.064 571.338C387.844 571.793 387.536 572.247 387.14 572.702C386.759 573.157 386.253 573.538 385.622 573.846C385.006 574.154 384.214 574.308 383.246 574.308ZM379.55 567.642H386.546C386.488 566.645 386.143 565.867 385.512 565.31C384.896 564.753 384.104 564.474 383.136 564.474C382.154 564.474 381.347 564.753 380.716 565.31C380.086 565.867 379.697 566.645 379.55 567.642ZM396.288 574.308C395.246 574.308 394.308 574.088 393.472 573.648C392.65 573.193 391.998 572.548 391.514 571.712C391.044 570.876 390.81 569.886 390.81 568.742V568.5C390.81 567.341 391.044 566.351 391.514 565.53C391.998 564.694 392.65 564.056 393.472 563.616C394.308 563.161 395.246 562.934 396.288 562.934C397.314 562.934 398.187 563.125 398.906 563.506C399.639 563.887 400.211 564.393 400.622 565.024C401.047 565.655 401.318 566.329 401.436 567.048L399.742 567.4C399.668 566.872 399.492 566.388 399.214 565.948C398.95 565.508 398.576 565.156 398.092 564.892C397.608 564.628 397.014 564.496 396.31 564.496C395.591 564.496 394.946 564.657 394.374 564.98C393.816 565.303 393.369 565.765 393.032 566.366C392.709 566.967 392.548 567.686 392.548 568.522V568.72C392.548 569.556 392.709 570.275 393.032 570.876C393.369 571.477 393.816 571.939 394.374 572.262C394.946 572.585 395.591 572.746 396.31 572.746C397.38 572.746 398.194 572.467 398.752 571.91C399.324 571.353 399.676 570.663 399.808 569.842L401.524 570.216C401.362 570.92 401.069 571.587 400.644 572.218C400.218 572.849 399.639 573.355 398.906 573.736C398.187 574.117 397.314 574.308 396.288 574.308ZM408.6 574.198C407.823 574.198 407.104 574.029 406.444 573.692C405.799 573.355 405.285 572.856 404.904 572.196C404.537 571.521 404.354 570.707 404.354 569.754V563.242H406.092V569.622C406.092 570.693 406.356 571.47 406.884 571.954C407.427 572.438 408.153 572.68 409.062 572.68C410.089 572.68 410.932 572.343 411.592 571.668C412.252 570.993 412.582 569.989 412.582 568.654V563.242H414.32V574H412.626V572.174H412.318C412.083 572.687 411.68 573.157 411.108 573.582C410.536 573.993 409.7 574.198 408.6 574.198ZM417.957 574V563.242H419.651V564.562H419.959C420.15 564.093 420.443 563.748 420.839 563.528C421.235 563.308 421.756 563.198 422.401 563.198H423.677V564.782H422.291C421.514 564.782 420.883 565.002 420.399 565.442C419.93 565.867 419.695 566.535 419.695 567.444V574H417.957ZM430.791 574.308C429.706 574.308 428.752 574.081 427.931 573.626C427.11 573.157 426.472 572.504 426.017 571.668C425.562 570.832 425.335 569.864 425.335 568.764V568.5C425.335 567.385 425.562 566.41 426.017 565.574C426.472 564.738 427.102 564.093 427.909 563.638C428.716 563.169 429.64 562.934 430.681 562.934C431.693 562.934 432.588 563.154 433.365 563.594C434.142 564.019 434.751 564.635 435.191 565.442C435.631 566.249 435.851 567.195 435.851 568.28V569.072H427.073C427.117 570.231 427.491 571.14 428.195 571.8C428.899 572.445 429.779 572.768 430.835 572.768C431.759 572.768 432.47 572.555 432.969 572.13C433.468 571.705 433.849 571.199 434.113 570.612L435.609 571.338C435.389 571.793 435.081 572.247 434.685 572.702C434.304 573.157 433.798 573.538 433.167 573.846C432.551 574.154 431.759 574.308 430.791 574.308ZM427.095 567.642H434.091C434.032 566.645 433.688 565.867 433.057 565.31C432.441 564.753 431.649 564.474 430.681 564.474C429.698 564.474 428.892 564.753 428.261 565.31C427.63 565.867 427.242 566.645 427.095 567.642ZM443.437 574.308C442.513 574.308 441.662 574.088 440.885 573.648C440.107 573.208 439.491 572.57 439.037 571.734C438.582 570.898 438.355 569.908 438.355 568.764V568.478C438.355 567.334 438.582 566.351 439.037 565.53C439.491 564.694 440.1 564.056 440.863 563.616C441.64 563.161 442.498 562.934 443.437 562.934C444.185 562.934 444.815 563.037 445.329 563.242C445.857 563.433 446.282 563.682 446.605 563.99C446.927 564.283 447.177 564.599 447.353 564.936H447.661V558.6H449.399V574H447.705V572.218H447.397C447.103 572.761 446.649 573.245 446.033 573.67C445.417 574.095 444.551 574.308 443.437 574.308ZM443.899 572.768C445.013 572.768 445.915 572.416 446.605 571.712C447.309 570.993 447.661 569.996 447.661 568.72V568.522C447.661 567.246 447.309 566.256 446.605 565.552C445.915 564.833 445.013 564.474 443.899 564.474C442.799 564.474 441.889 564.833 441.171 565.552C440.467 566.256 440.115 567.246 440.115 568.522V568.72C440.115 569.996 440.467 570.993 441.171 571.712C441.889 572.416 442.799 572.768 443.899 572.768Z" fill="white"/>
<path d="M621.034 494V492.35H623.19V480.25H621.034V478.6H628.756C629.651 478.6 630.443 478.761 631.132 479.084C631.836 479.407 632.379 479.861 632.76 480.448C633.156 481.02 633.354 481.695 633.354 482.472V482.648C633.354 483.367 633.215 483.961 632.936 484.43C632.657 484.885 632.327 485.244 631.946 485.508C631.565 485.757 631.191 485.941 630.824 486.058V486.366C631.191 486.454 631.572 486.63 631.968 486.894C632.364 487.143 632.694 487.503 632.958 487.972C633.237 488.441 633.376 489.035 633.376 489.754V489.974C633.376 490.81 633.171 491.536 632.76 492.152C632.364 492.753 631.814 493.215 631.11 493.538C630.421 493.846 629.629 494 628.734 494H621.034ZM625.038 492.328H628.536C629.504 492.328 630.245 492.101 630.758 491.646C631.271 491.191 631.528 490.575 631.528 489.798V489.6C631.528 488.823 631.271 488.207 630.758 487.752C630.245 487.297 629.504 487.07 628.536 487.07H625.038V492.328ZM625.038 485.398H628.602C629.482 485.398 630.186 485.178 630.714 484.738C631.242 484.283 631.506 483.689 631.506 482.956V482.736C631.506 481.988 631.242 481.394 630.714 480.954C630.201 480.499 629.497 480.272 628.602 480.272H625.038V485.398ZM636.371 494V483.242H638.109V494H636.371ZM637.251 481.57C636.87 481.57 636.547 481.445 636.283 481.196C636.034 480.947 635.909 480.631 635.909 480.25C635.909 479.854 636.034 479.531 636.283 479.282C636.547 479.033 636.87 478.908 637.251 478.908C637.632 478.908 637.948 479.033 638.197 479.282C638.446 479.531 638.571 479.854 638.571 480.25C638.571 480.631 638.446 480.947 638.197 481.196C637.948 481.445 637.632 481.57 637.251 481.57ZM645.724 494C645.108 494 644.631 493.831 644.294 493.494C643.971 493.157 643.81 492.695 643.81 492.108V484.76H640.576V483.242H643.81V479.414H645.548V483.242H649.068V484.76H645.548V491.844C645.548 492.284 645.76 492.504 646.186 492.504H648.584V494H645.724ZM656.446 494.308C655.405 494.308 654.466 494.088 653.63 493.648C652.809 493.193 652.156 492.548 651.672 491.712C651.203 490.876 650.968 489.886 650.968 488.742V488.5C650.968 487.341 651.203 486.351 651.672 485.53C652.156 484.694 652.809 484.056 653.63 483.616C654.466 483.161 655.405 482.934 656.446 482.934C657.473 482.934 658.345 483.125 659.064 483.506C659.797 483.887 660.369 484.393 660.78 485.024C661.205 485.655 661.477 486.329 661.594 487.048L659.9 487.4C659.827 486.872 659.651 486.388 659.372 485.948C659.108 485.508 658.734 485.156 658.25 484.892C657.766 484.628 657.172 484.496 656.468 484.496C655.749 484.496 655.104 484.657 654.532 484.98C653.975 485.303 653.527 485.765 653.19 486.366C652.867 486.967 652.706 487.686 652.706 488.522V488.72C652.706 489.556 652.867 490.275 653.19 490.876C653.527 491.477 653.975 491.939 654.532 492.262C655.104 492.585 655.749 492.746 656.468 492.746C657.539 492.746 658.353 492.467 658.91 491.91C659.482 491.353 659.834 490.663 659.966 489.842L661.682 490.216C661.521 490.92 661.227 491.587 660.802 492.218C660.377 492.849 659.797 493.355 659.064 493.736C658.345 494.117 657.473 494.308 656.446 494.308ZM669.616 494.308C668.531 494.308 667.57 494.081 666.734 493.626C665.913 493.171 665.268 492.533 664.798 491.712C664.344 490.876 664.116 489.893 664.116 488.764V488.478C664.116 487.363 664.344 486.388 664.798 485.552C665.268 484.716 665.913 484.071 666.734 483.616C667.57 483.161 668.531 482.934 669.616 482.934C670.702 482.934 671.655 483.161 672.476 483.616C673.312 484.071 673.958 484.716 674.412 485.552C674.882 486.388 675.116 487.363 675.116 488.478V488.764C675.116 489.893 674.882 490.876 674.412 491.712C673.958 492.533 673.312 493.171 672.476 493.626C671.655 494.081 670.702 494.308 669.616 494.308ZM669.616 492.746C670.76 492.746 671.67 492.387 672.344 491.668C673.034 490.935 673.378 489.952 673.378 488.72V488.522C673.378 487.29 673.034 486.315 672.344 485.596C671.67 484.863 670.76 484.496 669.616 484.496C668.487 484.496 667.578 484.863 666.888 485.596C666.199 486.315 665.854 487.29 665.854 488.522V488.72C665.854 489.952 666.199 490.935 666.888 491.668C667.578 492.387 668.487 492.746 669.616 492.746ZM678.244 494V483.242H679.982V494H678.244ZM679.124 481.57C678.743 481.57 678.42 481.445 678.156 481.196C677.907 480.947 677.782 480.631 677.782 480.25C677.782 479.854 677.907 479.531 678.156 479.282C678.42 479.033 678.743 478.908 679.124 478.908C679.505 478.908 679.821 479.033 680.07 479.282C680.319 479.531 680.444 479.854 680.444 480.25C680.444 480.631 680.319 480.947 680.07 481.196C679.821 481.445 679.505 481.57 679.124 481.57ZM683.637 494V483.242H685.331V485.068H685.639C685.873 484.555 686.269 484.093 686.827 483.682C687.399 483.257 688.235 483.044 689.335 483.044C690.141 483.044 690.86 483.213 691.491 483.55C692.136 483.887 692.649 484.386 693.031 485.046C693.412 485.706 693.603 486.52 693.603 487.488V494H691.865V487.62C691.865 486.549 691.593 485.772 691.051 485.288C690.523 484.804 689.804 484.562 688.895 484.562C687.853 484.562 687.003 484.899 686.343 485.574C685.697 486.249 685.375 487.253 685.375 488.588V494H683.637Z" fill="white"/>
<path d="M484.842 57.308C483.683 57.308 482.657 57.1027 481.762 56.692C480.867 56.2813 480.163 55.68 479.65 54.888C479.151 54.0813 478.902 53.106 478.902 51.962V51.412H481.256V51.962C481.256 53.0473 481.579 53.8613 482.224 54.404C482.884 54.9467 483.757 55.218 484.842 55.218C485.942 55.218 486.771 54.9907 487.328 54.536C487.885 54.0667 488.164 53.4653 488.164 52.732C488.164 52.248 488.032 51.852 487.768 51.544C487.504 51.236 487.13 50.994 486.646 50.818C486.162 50.6273 485.583 50.4513 484.908 50.29L484.094 50.092C483.111 49.8573 482.253 49.5713 481.52 49.234C480.801 48.882 480.244 48.42 479.848 47.848C479.452 47.276 479.254 46.5427 479.254 45.648C479.254 44.7387 479.474 43.9613 479.914 43.316C480.369 42.6707 480.992 42.172 481.784 41.82C482.576 41.468 483.507 41.292 484.578 41.292C485.649 41.292 486.602 41.4753 487.438 41.842C488.289 42.2087 488.956 42.7513 489.44 43.47C489.924 44.1887 490.166 45.0907 490.166 46.176V46.968H487.812V46.176C487.812 45.516 487.673 44.9807 487.394 44.57C487.13 44.1593 486.756 43.8587 486.272 43.668C485.788 43.4773 485.223 43.382 484.578 43.382C483.639 43.382 482.906 43.58 482.378 43.976C481.865 44.3573 481.608 44.8927 481.608 45.582C481.608 46.0513 481.718 46.44 481.938 46.748C482.173 47.0413 482.51 47.2833 482.95 47.474C483.39 47.6647 483.94 47.8333 484.6 47.98L485.414 48.178C486.411 48.398 487.291 48.684 488.054 49.036C488.817 49.3733 489.418 49.8353 489.858 50.422C490.298 51.0087 490.518 51.764 490.518 52.688C490.518 53.612 490.283 54.4187 489.814 55.108C489.359 55.7973 488.707 56.34 487.856 56.736C487.005 57.1173 486.001 57.308 484.842 57.308ZM497.148 57C496.488 57 495.96 56.802 495.564 56.406C495.183 56.01 494.992 55.482 494.992 54.822V48.068H492V46.154H494.992V42.568H497.258V46.154H500.492V48.068H497.258V54.426C497.258 54.866 497.464 55.086 497.874 55.086H500.14V57H497.148ZM506.499 57.308C505.722 57.308 505.025 57.176 504.409 56.912C503.808 56.648 503.324 56.2593 502.957 55.746C502.605 55.2327 502.429 54.6093 502.429 53.876C502.429 53.128 502.605 52.512 502.957 52.028C503.324 51.5293 503.815 51.1553 504.431 50.906C505.062 50.6567 505.773 50.532 506.565 50.532H509.865V49.828C509.865 49.1973 509.674 48.6913 509.293 48.31C508.912 47.9287 508.325 47.738 507.533 47.738C506.756 47.738 506.162 47.9213 505.751 48.288C505.34 48.6547 505.069 49.1313 504.937 49.718L502.825 49.036C503.001 48.4493 503.28 47.9213 503.661 47.452C504.057 46.968 504.578 46.5793 505.223 46.286C505.868 45.9927 506.646 45.846 507.555 45.846C508.963 45.846 510.07 46.2053 510.877 46.924C511.684 47.6427 512.087 48.662 512.087 49.982V54.448C512.087 54.888 512.292 55.108 512.703 55.108H513.627V57H511.933C511.42 57 511.002 56.868 510.679 56.604C510.356 56.34 510.195 55.9807 510.195 55.526V55.46H509.865C509.748 55.68 509.572 55.9367 509.337 56.23C509.102 56.5233 508.758 56.78 508.303 57C507.848 57.2053 507.247 57.308 506.499 57.308ZM506.829 55.438C507.738 55.438 508.472 55.1813 509.029 54.668C509.586 54.14 509.865 53.4213 509.865 52.512V52.292H506.697C506.096 52.292 505.612 52.424 505.245 52.688C504.878 52.9373 504.695 53.3113 504.695 53.81C504.695 54.3087 504.886 54.7047 505.267 54.998C505.648 55.2913 506.169 55.438 506.829 55.438ZM515.044 51.632V51.302C515.044 50.158 515.272 49.1827 515.726 48.376C516.196 47.5693 516.812 46.946 517.574 46.506C518.337 46.066 519.173 45.846 520.082 45.846C521.138 45.846 521.945 46.044 522.502 46.44C523.074 46.836 523.492 47.2613 523.756 47.716H524.108V46.154H526.308V59.222C526.308 59.882 526.11 60.41 525.714 60.806C525.333 61.202 524.805 61.4 524.13 61.4H516.826V59.42H523.426C523.852 59.42 524.064 59.2 524.064 58.76V55.306H523.712C523.551 55.57 523.324 55.8413 523.03 56.12C522.737 56.3987 522.348 56.626 521.864 56.802C521.395 56.978 520.801 57.066 520.082 57.066C519.173 57.066 518.33 56.8533 517.552 56.428C516.79 55.988 516.181 55.3647 515.726 54.558C515.272 53.7367 515.044 52.7613 515.044 51.632ZM520.698 55.086C521.681 55.086 522.488 54.778 523.118 54.162C523.764 53.5313 524.086 52.666 524.086 51.566V51.368C524.086 50.2387 523.771 49.3733 523.14 48.772C522.51 48.156 521.696 47.848 520.698 47.848C519.73 47.848 518.924 48.156 518.278 48.772C517.648 49.3733 517.332 50.2387 517.332 51.368V51.566C517.332 52.666 517.648 53.5313 518.278 54.162C518.924 54.778 519.73 55.086 520.698 55.086ZM534.617 57.308C533.517 57.308 532.556 57.0807 531.735 56.626C530.913 56.1567 530.268 55.504 529.799 54.668C529.344 53.8173 529.117 52.8347 529.117 51.72V51.456C529.117 50.3267 529.344 49.344 529.799 48.508C530.253 47.6573 530.884 47.0047 531.691 46.55C532.512 46.0807 533.458 45.846 534.529 45.846C535.57 45.846 536.479 46.0807 537.257 46.55C538.049 47.0047 538.665 47.6427 539.105 48.464C539.545 49.2853 539.765 50.246 539.765 51.346V52.204H531.427C531.456 53.1573 531.771 53.92 532.373 54.492C532.989 55.0493 533.751 55.328 534.661 55.328C535.511 55.328 536.149 55.1373 536.575 54.756C537.015 54.3747 537.352 53.9347 537.587 53.436L539.457 54.404C539.251 54.8147 538.951 55.2473 538.555 55.702C538.173 56.1567 537.667 56.538 537.037 56.846C536.406 57.154 535.599 57.308 534.617 57.308ZM531.449 50.466H537.455C537.396 49.6447 537.103 49.0067 536.575 48.552C536.047 48.0827 535.357 47.848 534.507 47.848C533.656 47.848 532.959 48.0827 532.417 48.552C531.889 49.0067 531.566 49.6447 531.449 50.466ZM546.936 57.308C545.558 57.308 544.414 57 543.504 56.384C542.595 55.768 542.038 54.8367 541.832 53.59L543.944 53.084C544.062 53.6853 544.26 54.162 544.538 54.514C544.817 54.866 545.162 55.1153 545.572 55.262C545.998 55.4087 546.452 55.482 546.936 55.482C547.655 55.482 548.205 55.3427 548.586 55.064C548.982 54.7853 549.18 54.426 549.18 53.986C549.18 53.546 548.997 53.2233 548.63 53.018C548.264 52.8127 547.721 52.644 547.002 52.512L546.254 52.38C545.521 52.248 544.854 52.0573 544.252 51.808C543.651 51.5587 543.174 51.214 542.822 50.774C542.47 50.334 542.294 49.7693 542.294 49.08C542.294 48.0533 542.676 47.2613 543.438 46.704C544.201 46.132 545.213 45.846 546.474 45.846C547.692 45.846 548.689 46.1247 549.466 46.682C550.258 47.2247 550.772 47.9653 551.006 48.904L548.894 49.498C548.762 48.838 548.484 48.376 548.058 48.112C547.633 47.8333 547.105 47.694 546.474 47.694C545.858 47.694 545.374 47.8113 545.022 48.046C544.67 48.266 544.494 48.5813 544.494 48.992C544.494 49.432 544.663 49.7547 545 49.96C545.352 50.1653 545.822 50.3193 546.408 50.422L547.178 50.554C547.956 50.686 548.667 50.8693 549.312 51.104C549.958 51.3387 550.464 51.676 550.83 52.116C551.212 52.556 551.402 53.1427 551.402 53.876C551.402 54.9613 550.999 55.8047 550.192 56.406C549.386 57.0073 548.3 57.308 546.936 57.308Z" fill="white"/>
<rect y="691" width="508" height="261" rx="130.5" transform="rotate(-90 0 691)" fill="url(#paint2_linear_68_196)"/>
<path d="M55.4637 484V481.888H57.5317V470.712H55.4637V468.6H63.2737C64.1977 468.6 65.0044 468.761 65.6937 469.084C66.383 469.392 66.9184 469.839 67.2997 470.426C67.6957 470.998 67.8937 471.68 67.8937 472.472V472.692C67.8937 473.396 67.7617 473.975 67.4977 474.43C67.2337 474.885 66.911 475.237 66.5297 475.486C66.163 475.735 65.811 475.911 65.4737 476.014V476.366C65.811 476.454 66.1704 476.63 66.5517 476.894C66.9477 477.143 67.2777 477.495 67.5417 477.95C67.8204 478.405 67.9597 478.999 67.9597 479.732V479.952C67.9597 480.803 67.7617 481.529 67.3657 482.13C66.9697 482.731 66.4197 483.193 65.7157 483.516C65.0264 483.839 64.227 484 63.3177 484H55.4637ZM59.9297 481.844H63.0317C63.8237 481.844 64.447 481.653 64.9017 481.272C65.3564 480.891 65.5837 480.363 65.5837 479.688V479.49C65.5837 478.815 65.3564 478.287 64.9017 477.906C64.4617 477.525 63.8384 477.334 63.0317 477.334H59.9297V481.844ZM59.9297 475.156H63.0317C63.7797 475.156 64.381 474.973 64.8357 474.606C65.2904 474.225 65.5177 473.711 65.5177 473.066V472.846C65.5177 472.201 65.2904 471.695 64.8357 471.328C64.3957 470.947 63.7944 470.756 63.0317 470.756H59.9297V475.156ZM70.6896 484V473.154H72.9556V484H70.6896ZM71.8336 471.68C71.3936 471.68 71.0196 471.541 70.7116 471.262C70.4182 470.969 70.2716 470.595 70.2716 470.14C70.2716 469.685 70.4182 469.319 70.7116 469.04C71.0196 468.747 71.3936 468.6 71.8336 468.6C72.2882 468.6 72.6622 468.747 72.9556 469.04C73.2489 469.319 73.3956 469.685 73.3956 470.14C73.3956 470.595 73.2489 470.969 72.9556 471.262C72.6622 471.541 72.2882 471.68 71.8336 471.68ZM80.3885 484C79.7285 484 79.2005 483.802 78.8045 483.406C78.4232 483.01 78.2325 482.482 78.2325 481.822V475.068H75.2405V473.154H78.2325V469.568H80.4985V473.154H83.7325V475.068H80.4985V481.426C80.4985 481.866 80.7038 482.086 81.1145 482.086H83.3805V484H80.3885ZM91.0459 484.308C90.0046 484.308 89.0586 484.088 88.2079 483.648C87.3719 483.208 86.7046 482.57 86.2059 481.734C85.7219 480.898 85.4799 479.893 85.4799 478.72V478.434C85.4799 477.261 85.7219 476.263 86.2059 475.442C86.7046 474.606 87.3719 473.968 88.2079 473.528C89.0586 473.073 90.0046 472.846 91.0459 472.846C92.0873 472.846 92.9746 473.037 93.7079 473.418C94.4413 473.799 95.0279 474.305 95.4679 474.936C95.9226 475.567 96.2159 476.263 96.3479 477.026L94.1479 477.488C94.0746 477.004 93.9206 476.564 93.6859 476.168C93.4513 475.772 93.1213 475.457 92.6959 475.222C92.2706 474.987 91.7353 474.87 91.0899 474.87C90.4593 474.87 89.8873 475.017 89.3739 475.31C88.8753 475.589 88.4793 475.999 88.1859 476.542C87.8926 477.07 87.7459 477.715 87.7459 478.478V478.676C87.7459 479.439 87.8926 480.091 88.1859 480.634C88.4793 481.177 88.8753 481.587 89.3739 481.866C89.8873 482.145 90.4593 482.284 91.0899 482.284C92.0433 482.284 92.7693 482.042 93.2679 481.558C93.7666 481.059 94.0819 480.429 94.2139 479.666L96.4139 480.172C96.2379 480.92 95.9226 481.609 95.4679 482.24C95.0279 482.871 94.4413 483.377 93.7079 483.758C92.9746 484.125 92.0873 484.308 91.0459 484.308ZM104.109 484.308C103.024 484.308 102.056 484.088 101.205 483.648C100.369 483.193 99.7095 482.548 99.2255 481.712C98.7415 480.876 98.4995 479.886 98.4995 478.742V478.412C98.4995 477.268 98.7415 476.285 99.2255 475.464C99.7095 474.628 100.369 473.983 101.205 473.528C102.056 473.073 103.024 472.846 104.109 472.846C105.195 472.846 106.163 473.073 107.013 473.528C107.864 473.983 108.531 474.628 109.015 475.464C109.499 476.285 109.741 477.268 109.741 478.412V478.742C109.741 479.886 109.499 480.876 109.015 481.712C108.531 482.548 107.864 483.193 107.013 483.648C106.163 484.088 105.195 484.308 104.109 484.308ZM104.109 482.284C105.107 482.284 105.913 481.969 106.529 481.338C107.16 480.693 107.475 479.805 107.475 478.676V478.478C107.475 477.349 107.167 476.469 106.551 475.838C105.935 475.193 105.121 474.87 104.109 474.87C103.127 474.87 102.32 475.193 101.689 475.838C101.073 476.469 100.765 477.349 100.765 478.478V478.676C100.765 479.805 101.073 480.693 101.689 481.338C102.32 481.969 103.127 482.284 104.109 482.284ZM112.563 484V473.154H114.829V484H112.563ZM113.707 471.68C113.267 471.68 112.893 471.541 112.585 471.262C112.291 470.969 112.145 470.595 112.145 470.14C112.145 469.685 112.291 469.319 112.585 469.04C112.893 468.747 113.267 468.6 113.707 468.6C114.161 468.6 114.535 468.747 114.829 469.04C115.122 469.319 115.269 469.685 115.269 470.14C115.269 470.595 115.122 470.969 114.829 471.262C114.535 471.541 114.161 471.68 113.707 471.68ZM118.192 484V473.154H120.414V474.782H120.766C120.971 474.342 121.338 473.931 121.866 473.55C122.394 473.169 123.178 472.978 124.22 472.978C125.041 472.978 125.767 473.161 126.398 473.528C127.043 473.895 127.549 474.415 127.916 475.09C128.282 475.75 128.466 476.549 128.466 477.488V484H126.2V477.664C126.2 476.725 125.965 476.036 125.496 475.596C125.026 475.141 124.381 474.914 123.56 474.914C122.621 474.914 121.866 475.222 121.294 475.838C120.736 476.454 120.458 477.349 120.458 478.522V484H118.192ZM141.778 484.308C140.399 484.308 139.255 484 138.346 483.384C137.437 482.768 136.879 481.837 136.674 480.59L138.786 480.084C138.903 480.685 139.101 481.162 139.38 481.514C139.659 481.866 140.003 482.115 140.414 482.262C140.839 482.409 141.294 482.482 141.778 482.482C142.497 482.482 143.047 482.343 143.428 482.064C143.824 481.785 144.022 481.426 144.022 480.986C144.022 480.546 143.839 480.223 143.472 480.018C143.105 479.813 142.563 479.644 141.844 479.512L141.096 479.38C140.363 479.248 139.695 479.057 139.094 478.808C138.493 478.559 138.016 478.214 137.664 477.774C137.312 477.334 137.136 476.769 137.136 476.08C137.136 475.053 137.517 474.261 138.28 473.704C139.043 473.132 140.055 472.846 141.316 472.846C142.533 472.846 143.531 473.125 144.308 473.682C145.1 474.225 145.613 474.965 145.848 475.904L143.736 476.498C143.604 475.838 143.325 475.376 142.9 475.112C142.475 474.833 141.947 474.694 141.316 474.694C140.7 474.694 140.216 474.811 139.864 475.046C139.512 475.266 139.336 475.581 139.336 475.992C139.336 476.432 139.505 476.755 139.842 476.96C140.194 477.165 140.663 477.319 141.25 477.422L142.02 477.554C142.797 477.686 143.509 477.869 144.154 478.104C144.799 478.339 145.305 478.676 145.672 479.116C146.053 479.556 146.244 480.143 146.244 480.876C146.244 481.961 145.841 482.805 145.034 483.406C144.227 484.007 143.142 484.308 141.778 484.308ZM153.865 484.308C152.765 484.308 151.804 484.081 150.983 483.626C150.161 483.157 149.516 482.504 149.047 481.668C148.592 480.817 148.365 479.835 148.365 478.72V478.456C148.365 477.327 148.592 476.344 149.047 475.508C149.501 474.657 150.132 474.005 150.939 473.55C151.76 473.081 152.706 472.846 153.777 472.846C154.818 472.846 155.727 473.081 156.505 473.55C157.297 474.005 157.913 474.643 158.353 475.464C158.793 476.285 159.013 477.246 159.013 478.346V479.204H150.675C150.704 480.157 151.019 480.92 151.621 481.492C152.237 482.049 152.999 482.328 153.909 482.328C154.759 482.328 155.397 482.137 155.823 481.756C156.263 481.375 156.6 480.935 156.835 480.436L158.705 481.404C158.499 481.815 158.199 482.247 157.803 482.702C157.421 483.157 156.915 483.538 156.285 483.846C155.654 484.154 154.847 484.308 153.865 484.308ZM150.697 477.466H156.703C156.644 476.645 156.351 476.007 155.823 475.552C155.295 475.083 154.605 474.848 153.755 474.848C152.904 474.848 152.207 475.083 151.665 475.552C151.137 476.007 150.814 476.645 150.697 477.466ZM166.778 484.308C165.737 484.308 164.791 484.088 163.94 483.648C163.104 483.208 162.437 482.57 161.938 481.734C161.454 480.898 161.212 479.893 161.212 478.72V478.434C161.212 477.261 161.454 476.263 161.938 475.442C162.437 474.606 163.104 473.968 163.94 473.528C164.791 473.073 165.737 472.846 166.778 472.846C167.82 472.846 168.707 473.037 169.44 473.418C170.174 473.799 170.76 474.305 171.2 474.936C171.655 475.567 171.948 476.263 172.08 477.026L169.88 477.488C169.807 477.004 169.653 476.564 169.418 476.168C169.184 475.772 168.854 475.457 168.428 475.222C168.003 474.987 167.468 474.87 166.822 474.87C166.192 474.87 165.62 475.017 165.106 475.31C164.608 475.589 164.212 475.999 163.918 476.542C163.625 477.07 163.478 477.715 163.478 478.478V478.676C163.478 479.439 163.625 480.091 163.918 480.634C164.212 481.177 164.608 481.587 165.106 481.866C165.62 482.145 166.192 482.284 166.822 482.284C167.776 482.284 168.502 482.042 169 481.558C169.499 481.059 169.814 480.429 169.946 479.666L172.146 480.172C171.97 480.92 171.655 481.609 171.2 482.24C170.76 482.871 170.174 483.377 169.44 483.758C168.707 484.125 167.82 484.308 166.778 484.308ZM178.918 484.198C178.097 484.198 177.363 484.015 176.718 483.648C176.073 483.281 175.567 482.761 175.2 482.086C174.833 481.411 174.65 480.605 174.65 479.666V473.154H176.916V479.512C176.916 480.451 177.151 481.147 177.62 481.602C178.089 482.042 178.742 482.262 179.578 482.262C180.502 482.262 181.243 481.954 181.8 481.338C182.372 480.707 182.658 479.805 182.658 478.632V473.154H184.924V484H182.702V482.372H182.35C182.145 482.812 181.778 483.23 181.25 483.626C180.722 484.007 179.945 484.198 178.918 484.198ZM188.274 484V473.154H190.496V474.43H190.848C191.024 473.975 191.302 473.645 191.684 473.44C192.08 473.22 192.564 473.11 193.136 473.11H194.434V475.156H193.048C192.314 475.156 191.713 475.361 191.244 475.772C190.774 476.168 190.54 476.784 190.54 477.62V484H188.274ZM201.367 484.308C200.267 484.308 199.306 484.081 198.485 483.626C197.663 483.157 197.018 482.504 196.549 481.668C196.094 480.817 195.867 479.835 195.867 478.72V478.456C195.867 477.327 196.094 476.344 196.549 475.508C197.003 474.657 197.634 474.005 198.441 473.55C199.262 473.081 200.208 472.846 201.279 472.846C202.32 472.846 203.229 473.081 204.007 473.55C204.799 474.005 205.415 474.643 205.855 475.464C206.295 476.285 206.515 477.246 206.515 478.346V479.204H198.177C198.206 480.157 198.521 480.92 199.123 481.492C199.739 482.049 200.501 482.328 201.411 482.328C202.261 482.328 202.899 482.137 203.325 481.756C203.765 481.375 204.102 480.935 204.337 480.436L206.207 481.404C206.001 481.815 205.701 482.247 205.305 482.702C204.923 483.157 204.417 483.538 203.787 483.846C203.156 484.154 202.349 484.308 201.367 484.308ZM198.199 477.466H204.205C204.146 476.645 203.853 476.007 203.325 475.552C202.797 475.083 202.107 474.848 201.257 474.848C200.406 474.848 199.709 475.083 199.167 475.552C198.639 476.007 198.316 476.645 198.199 477.466ZM90.33 514.308C89.5527 514.308 88.856 514.176 88.24 513.912C87.6387 513.648 87.1547 513.259 86.788 512.746C86.436 512.233 86.26 511.609 86.26 510.876C86.26 510.128 86.436 509.512 86.788 509.028C87.1547 508.529 87.646 508.155 88.262 507.906C88.8927 507.657 89.604 507.532 90.396 507.532H93.696V506.828C93.696 506.197 93.5053 505.691 93.124 505.31C92.7427 504.929 92.156 504.738 91.364 504.738C90.5867 504.738 89.9927 504.921 89.582 505.288C89.1713 505.655 88.9 506.131 88.768 506.718L86.656 506.036C86.832 505.449 87.1107 504.921 87.492 504.452C87.888 503.968 88.4087 503.579 89.054 503.286C89.6993 502.993 90.4767 502.846 91.386 502.846C92.794 502.846 93.9013 503.205 94.708 503.924C95.5147 504.643 95.918 505.662 95.918 506.982V511.448C95.918 511.888 96.1233 512.108 96.534 512.108H97.458V514H95.764C95.2507 514 94.8327 513.868 94.51 513.604C94.1873 513.34 94.026 512.981 94.026 512.526V512.46H93.696C93.5787 512.68 93.4027 512.937 93.168 513.23C92.9333 513.523 92.5887 513.78 92.134 514C91.6793 514.205 91.078 514.308 90.33 514.308ZM90.66 512.438C91.5693 512.438 92.3027 512.181 92.86 511.668C93.4173 511.14 93.696 510.421 93.696 509.512V509.292H90.528C89.9267 509.292 89.4427 509.424 89.076 509.688C88.7093 509.937 88.526 510.311 88.526 510.81C88.526 511.309 88.7167 511.705 89.098 511.998C89.4793 512.291 90 512.438 90.66 512.438ZM99.6613 514V503.154H101.883V504.782H102.235C102.441 504.342 102.807 503.931 103.335 503.55C103.863 503.169 104.648 502.978 105.689 502.978C106.511 502.978 107.237 503.161 107.867 503.528C108.513 503.895 109.019 504.415 109.385 505.09C109.752 505.75 109.935 506.549 109.935 507.488V514H107.669V507.664C107.669 506.725 107.435 506.036 106.965 505.596C106.496 505.141 105.851 504.914 105.029 504.914C104.091 504.914 103.335 505.222 102.763 505.838C102.206 506.454 101.927 507.349 101.927 508.522V514H99.6613ZM117.684 514.308C116.79 514.308 115.961 514.088 115.198 513.648C114.436 513.208 113.82 512.577 113.35 511.756C112.896 510.92 112.668 509.915 112.668 508.742V508.412C112.668 507.253 112.896 506.256 113.35 505.42C113.805 504.584 114.414 503.946 115.176 503.506C115.939 503.066 116.775 502.846 117.684 502.846C118.388 502.846 118.975 502.934 119.444 503.11C119.928 503.286 120.324 503.513 120.632 503.792C120.94 504.056 121.175 504.335 121.336 504.628H121.688V498.6H123.954V514H121.732V512.46H121.38C121.102 512.929 120.676 513.355 120.104 513.736C119.547 514.117 118.74 514.308 117.684 514.308ZM118.322 512.328C119.305 512.328 120.112 512.013 120.742 511.382C121.388 510.751 121.71 509.849 121.71 508.676V508.478C121.71 507.319 121.395 506.425 120.764 505.794C120.134 505.163 119.32 504.848 118.322 504.848C117.354 504.848 116.548 505.163 115.902 505.794C115.272 506.425 114.956 507.319 114.956 508.478V508.676C114.956 509.849 115.272 510.751 115.902 511.382C116.548 512.013 117.354 512.328 118.322 512.328ZM137.342 514.308C135.963 514.308 134.819 514 133.91 513.384C133 512.768 132.443 511.837 132.238 510.59L134.35 510.084C134.467 510.685 134.665 511.162 134.944 511.514C135.222 511.866 135.567 512.115 135.978 512.262C136.403 512.409 136.858 512.482 137.342 512.482C138.06 512.482 138.61 512.343 138.992 512.064C139.388 511.785 139.586 511.426 139.586 510.986C139.586 510.546 139.402 510.223 139.036 510.018C138.669 509.813 138.126 509.644 137.408 509.512L136.66 509.38C135.926 509.248 135.259 509.057 134.658 508.808C134.056 508.559 133.58 508.214 133.228 507.774C132.876 507.334 132.7 506.769 132.7 506.08C132.7 505.053 133.081 504.261 133.844 503.704C134.606 503.132 135.618 502.846 136.88 502.846C138.097 502.846 139.094 503.125 139.872 503.682C140.664 504.225 141.177 504.965 141.412 505.904L139.3 506.498C139.168 505.838 138.889 505.376 138.464 505.112C138.038 504.833 137.51 504.694 136.88 504.694C136.264 504.694 135.78 504.811 135.428 505.046C135.076 505.266 134.9 505.581 134.9 505.992C134.9 506.432 135.068 506.755 135.406 506.96C135.758 507.165 136.227 507.319 136.814 507.422L137.584 507.554C138.361 507.686 139.072 507.869 139.718 508.104C140.363 508.339 140.869 508.676 141.236 509.116C141.617 509.556 141.808 510.143 141.808 510.876C141.808 511.961 141.404 512.805 140.598 513.406C139.791 514.007 138.706 514.308 137.342 514.308ZM147.736 514.308C146.959 514.308 146.262 514.176 145.646 513.912C145.045 513.648 144.561 513.259 144.194 512.746C143.842 512.233 143.666 511.609 143.666 510.876C143.666 510.128 143.842 509.512 144.194 509.028C144.561 508.529 145.052 508.155 145.668 507.906C146.299 507.657 147.01 507.532 147.802 507.532H151.102V506.828C151.102 506.197 150.912 505.691 150.53 505.31C150.149 504.929 149.562 504.738 148.77 504.738C147.993 504.738 147.399 504.921 146.988 505.288C146.578 505.655 146.306 506.131 146.174 506.718L144.062 506.036C144.238 505.449 144.517 504.921 144.898 504.452C145.294 503.968 145.815 503.579 146.46 503.286C147.106 502.993 147.883 502.846 148.792 502.846C150.2 502.846 151.308 503.205 152.114 503.924C152.921 504.643 153.324 505.662 153.324 506.982V511.448C153.324 511.888 153.53 512.108 153.94 512.108H154.864V514H153.17C152.657 514 152.239 513.868 151.916 513.604C151.594 513.34 151.432 512.981 151.432 512.526V512.46H151.102C150.985 512.68 150.809 512.937 150.574 513.23C150.34 513.523 149.995 513.78 149.54 514C149.086 514.205 148.484 514.308 147.736 514.308ZM148.066 512.438C148.976 512.438 149.709 512.181 150.266 511.668C150.824 511.14 151.102 510.421 151.102 509.512V509.292H147.934C147.333 509.292 146.849 509.424 146.482 509.688C146.116 509.937 145.932 510.311 145.932 510.81C145.932 511.309 146.123 511.705 146.504 511.998C146.886 512.291 147.406 512.438 148.066 512.438ZM158.274 514V505.068H155.238V503.154H158.274V500.778C158.274 500.118 158.472 499.59 158.868 499.194C159.264 498.798 159.792 498.6 160.452 498.6H163.246V500.514H161.178C160.752 500.514 160.54 500.734 160.54 501.174V503.154H163.664V505.068H160.54V514H158.274ZM170.504 514.308C169.404 514.308 168.444 514.081 167.622 513.626C166.801 513.157 166.156 512.504 165.686 511.668C165.232 510.817 165.004 509.835 165.004 508.72V508.456C165.004 507.327 165.232 506.344 165.686 505.508C166.141 504.657 166.772 504.005 167.578 503.55C168.4 503.081 169.346 502.846 170.416 502.846C171.458 502.846 172.367 503.081 173.144 503.55C173.936 504.005 174.552 504.643 174.992 505.464C175.432 506.285 175.652 507.246 175.652 508.346V509.204H167.314C167.344 510.157 167.659 510.92 168.26 511.492C168.876 512.049 169.639 512.328 170.548 512.328C171.399 512.328 172.037 512.137 172.462 511.756C172.902 511.375 173.24 510.935 173.474 510.436L175.344 511.404C175.139 511.815 174.838 512.247 174.442 512.702C174.061 513.157 173.555 513.538 172.924 513.846C172.294 514.154 171.487 514.308 170.504 514.308ZM167.336 507.466H173.342C173.284 506.645 172.99 506.007 172.462 505.552C171.934 505.083 171.245 504.848 170.394 504.848C169.544 504.848 168.847 505.083 168.304 505.552C167.776 506.007 167.454 506.645 167.336 507.466Z" fill="white"/>
<path d="M170.42 311.32V281.376C170.406 270.937 166.248 260.93 158.859 253.548C151.469 246.167 141.45 242.014 131 242C109.29 242 91.6238 259.665 91.6238 281.376V311.289C73.1588 323.912 61 345.129 61 369.078C61 407.597 92.4413 439 131 439C169.559 439 201 407.597 201 369.078C201 345.148 188.86 323.946 170.42 311.32ZM135.805 379.146V401.341C135.808 401.59 135.761 401.836 135.667 402.066C135.573 402.297 135.434 402.506 135.258 402.681C135.082 402.857 134.872 402.995 134.642 403.089C134.411 403.182 134.164 403.229 133.915 403.226H128.085C127.836 403.229 127.589 403.182 127.358 403.089C127.128 402.995 126.918 402.857 126.742 402.681C126.566 402.506 126.427 402.297 126.333 402.066C126.239 401.836 126.192 401.59 126.195 401.341V378.634C126.325 374.306 121.393 375.119 121.393 368.178C121.393 365.632 122.405 363.192 124.207 361.392C126.008 359.592 128.452 358.581 131 358.581C133.548 358.581 135.992 359.592 137.793 361.392C139.595 363.192 140.607 365.632 140.607 368.178C140.607 375.036 135.805 374.048 135.805 379.146ZM155.321 303.484C139.645 297.666 122.399 297.666 106.723 303.484V281.391C106.723 274.954 109.283 268.78 113.84 264.229C118.397 259.677 124.577 257.119 131.022 257.119C137.466 257.119 143.647 259.677 148.204 264.229C152.761 268.78 155.321 274.954 155.321 281.391V303.484Z" fill="white"/>
<rect x="51" y="583" width="160" height="8" rx="4" fill="#523FFF"/>
<rect x="43" y="603" width="176" height="8" rx="4" fill="#523FFF"/>
<rect x="68" y="623" width="126" height="8" rx="4" fill="#523FFF"/>
<defs>
<linearGradient id="paint0_linear_68_196" x1="515.5" y1="165.337" x2="515.5" y2="490.337" gradientUnits="userSpaceOnUse">
<stop stop-color="#5846FB"/>
<stop offset="0.427083" stop-color="#5442F4"/>
<stop offset="1" stop-color="#2C18E6"/>
</linearGradient>
<linearGradient id="paint1_linear_68_196" x1="351" y1="100" x2="505.5" y2="553.5" gradientUnits="userSpaceOnUse">
<stop stop-color="#262729"/>
<stop offset="0.390625" stop-color="#262729"/>
<stop offset="0.521027" stop-color="#1E1F21"/>
<stop offset="1" stop-color="#101010"/>
</linearGradient>
<linearGradient id="paint2_linear_68_196" x1="-16.5" y1="822" x2="535.5" y2="822" gradientUnits="userSpaceOnUse">
<stop stop-color="#2C18E5"/>
<stop offset="0.46875" stop-color="#5442F4"/>
<stop offset="1" stop-color="#5442F5"/>
</linearGradient>
</defs>
</svg>
