<svg width="617" height="508" viewBox="0 0 617 508" fill="none" xmlns="http://www.w3.org/2000/svg">
<rect y="508" width="441" height="265" rx="132.5" transform="rotate(-90 0 508)" fill="black"/>
<rect x="86" y="136" width="94" height="303" rx="47" stroke="url(#paint0_linear_68_281)" stroke-width="6"/>
<circle cx="133" cy="183" r="50" fill="url(#paint1_linear_68_281)"/>
<path d="M124.132 164.495V156.713H129.308V164.453H132.226V156.719H137.425V164.532C138.191 164.647 138.917 164.748 139.646 164.876C141.712 165.256 143.675 165.885 145.507 166.941C150.955 170.071 150.258 177.164 146.196 180.264L145.578 180.738C146.092 180.961 146.573 181.129 147.016 181.369C150.209 183.098 151.836 185.777 151.85 189.417C151.864 190.873 151.638 192.321 151.181 193.703C150.006 197.187 147.461 199.146 144.022 200.093C142.126 200.614 140.186 200.757 138.23 200.772H137.497V208.696H132.431V200.813H129.484V208.693H124.291V200.8H114.881V195.304H118.014C119.916 195.304 120.404 194.817 120.405 192.894C120.405 185.879 120.405 178.862 120.405 171.845C120.405 170.404 119.967 169.913 118.514 169.856C117.331 169.81 116.143 169.841 114.956 169.837H114.361V164.501L124.132 164.495ZM129.342 194.711C129.406 194.743 129.439 194.775 129.473 194.775C131.972 194.717 134.48 194.747 136.97 194.565C138.577 194.45 140.042 193.776 141.088 192.443C143.283 189.65 142.33 186.342 138.96 185.295C137.827 184.943 136.606 184.787 135.417 184.729C133.567 184.636 131.71 184.702 129.856 184.705C129.691 184.705 129.525 184.726 129.342 184.74V194.711ZM129.342 179.35C131.415 179.35 133.423 179.415 135.424 179.333C137.595 179.242 139.423 177.415 139.653 175.27C139.914 172.84 138.899 171.348 136.471 170.627C134.139 169.938 131.747 170.214 129.343 170.154L129.342 179.35Z" fill="black"/>
<circle cx="132" cy="392" r="50" fill="#5846FB"/>
<path d="M149.282 413.959C147.081 413.959 145.147 413.933 143.215 413.973C142.569 413.985 142.357 413.57 142.087 413.143L132.779 398.465C132.081 397.375 132.081 397.38 131.424 398.432C128.348 403.295 125.253 408.144 122.212 413.028C121.76 413.75 121.281 414.022 120.448 413.98C119.016 413.905 117.581 413.98 116.15 413.95C115.828 413.95 115.389 414.144 115.219 413.769C115.077 413.471 115.43 413.218 115.589 412.965C118.164 408.892 120.743 404.82 123.326 400.75C123.468 400.53 123.596 400.3 123.731 400.073C123.37 399.766 123.012 399.892 122.686 399.892C119.163 399.88 115.638 399.855 112.114 399.906C111.225 399.92 110.951 399.651 111.028 398.784C111.107 397.812 111.107 396.835 111.028 395.863C110.937 394.816 111.244 394.483 112.345 394.492C119.279 394.546 126.212 394.518 133.146 394.518C139.429 394.518 145.696 394.535 151.97 394.502C152.845 394.502 153.236 394.67 153.157 395.643C153.073 396.693 153.073 397.748 153.157 398.798C153.226 399.716 152.863 399.897 152.028 399.888C148.621 399.843 145.212 399.869 141.803 399.869H140.393L149.282 413.959Z" fill="white"/>
<path d="M149.419 370.015L140.577 383.998H148.221C149.578 383.998 150.932 384.028 152.286 383.983C152.952 383.962 153.164 384.197 153.14 384.853C153.096 386.025 153.08 387.197 153.14 388.368C153.187 389.205 152.88 389.409 152.086 389.402C147.709 389.367 143.334 389.386 138.959 389.386C130.054 389.386 121.148 389.372 112.245 389.407C111.3 389.407 110.928 389.203 111.011 388.197C111.089 387.148 111.089 386.094 111.011 385.045C110.963 384.237 111.212 383.979 112.038 383.988C115.638 384.03 119.24 384.007 122.84 384.005C123.026 384.005 123.212 383.983 123.619 383.96L114.805 370.034C117.071 370.034 119.133 370.034 121.197 370.034C121.662 370.034 121.779 370.503 121.977 370.814C125.134 375.814 128.288 380.808 131.441 385.795C131.622 386.081 131.825 386.353 132.111 386.768C133.481 384.614 134.794 382.563 136.097 380.508C138.133 377.292 140.179 374.079 142.187 370.843C142.555 370.25 142.943 369.98 143.662 370.001C145.512 370.05 147.358 370.015 149.419 370.015Z" fill="white"/>
<rect x="287" y="508" width="508" height="330" rx="165" transform="rotate(-90 287 508)" fill="url(#paint2_linear_68_281)"/>
<mask id="mask0_68_281" style="mask-type:alpha" maskUnits="userSpaceOnUse" x="287" y="0" width="330" height="508">
<rect x="287" y="508" width="508" height="330" rx="165" transform="rotate(-90 287 508)" fill="url(#paint3_linear_68_281)"/>
</mask>
<g mask="url(#mask0_68_281)">
<path d="M515.174 296.478L503.923 305C501.922 302.387 454.211 241.436 384.35 293.064L375.971 281.693C399.344 264.437 420.693 258.151 439.406 258.151C485.54 258.292 514.704 295.96 515.174 296.478Z" fill="white"/>
<path d="M350.457 137.921C343.047 132.092 334.488 127.896 325.342 125.609L322 139.334C328.254 140.885 334.156 143.609 339.394 147.362C340.977 148.45 342.501 149.621 343.961 150.869C358.578 163.205 367.499 181.286 371.194 190.514C357.122 197.189 343.823 205.383 331.533 214.951L340.124 226.157C377.997 197.13 416.905 185.053 455.837 190.303C524.097 199.508 570.278 259.446 570.725 260.058L576.351 255.797L582 251.536C580.258 249.182 543.586 201.462 485.118 182.557C494.533 165.654 522.943 123.395 578.563 105.15L574.162 91.7313C529.891 106.433 492.986 137.629 471.113 178.838C466.805 177.872 462.357 177.048 457.837 176.483C451.261 175.591 444.632 175.143 437.995 175.141C431.809 175.142 425.629 175.543 419.494 176.342C419.944 169.092 419.091 161.82 416.976 154.871C431.339 152.233 445.084 146.94 457.508 139.263C507.102 108.658 519.036 50.1791 519.507 47.7307L505.643 45C505.643 45.5415 494.298 99.9476 449.952 127.398C438.117 134.626 424.963 139.427 411.256 141.523C405.938 132.291 398.955 124.124 390.66 117.439C463.157 108.705 473.89 48.1309 473.984 47.4718L460.05 45.1175C459.626 47.613 448.658 106.327 368.252 104.208L333.628 103.267L365.122 117.698C377.167 123.581 387.652 132.229 395.721 142.936C380.475 143.327 365.248 141.64 350.457 137.921ZM402.9 156.614C405.332 163.705 406.09 171.263 405.112 178.696C398.027 180.327 391.059 182.435 384.258 185.006C379.972 174.495 374.364 164.575 367.569 155.484C379.269 157.159 391.117 157.537 402.9 156.614Z" fill="white"/>
<path d="M549.424 279.103L543.563 283.034L537.702 286.989C537.396 286.518 504.749 239.057 453.413 231.43C422.484 226.839 390.755 237.503 359.096 263.117L350.199 252.123C379.692 228.275 409.561 216.269 439.243 216.269C444.758 216.262 450.266 216.671 455.719 217.493C513.105 226.109 547.964 276.937 549.424 279.103Z" fill="white"/>
</g>
<path d="M496.297 375C496.297 374.172 495.625 373.5 494.797 373.5L481.297 373.5C480.469 373.5 479.797 374.172 479.797 375C479.797 375.828 480.469 376.5 481.297 376.5H493.297V388.5C493.297 389.328 493.969 390 494.797 390C495.625 390 496.297 389.328 496.297 388.5L496.297 375ZM476.059 395.86L495.858 376.061L493.736 373.939L473.937 393.738L476.059 395.86Z" fill="white"/>
<path d="M407.5 457.699C407.5 458.527 408.171 459.199 409 459.199L422.5 459.199C423.328 459.199 424 458.527 424 457.699C424 456.87 423.328 456.199 422.5 456.199L410.5 456.199L410.5 444.199C410.5 443.37 409.828 442.699 409 442.699C408.171 442.699 407.5 443.37 407.5 444.199L407.5 457.699ZM427.738 436.839L407.939 456.638L410.061 458.759L429.859 438.96L427.738 436.839Z" fill="white"/>
<path d="M407.5 375C407.5 374.172 408.171 373.5 409 373.5L422.5 373.5C423.328 373.5 424 374.172 424 375C424 375.828 423.328 376.5 422.5 376.5H410.5V388.5C410.5 389.328 409.828 390 409 390C408.171 390 407.5 389.328 407.5 388.5L407.5 375ZM427.738 395.86L407.939 376.061L410.06 373.939L429.859 393.738L427.738 395.86Z" fill="white"/>
<path d="M496.297 457.699C496.297 458.527 495.625 459.199 494.797 459.199L481.297 459.199C480.469 459.199 479.797 458.527 479.797 457.699C479.797 456.87 480.469 456.199 481.297 456.199L493.297 456.199L493.297 444.199C493.297 443.37 493.969 442.699 494.797 442.699C495.625 442.699 496.297 443.37 496.297 444.199L496.297 457.699ZM476.059 436.839L495.858 456.638L493.736 458.759L473.937 438.96L476.059 436.839Z" fill="white"/>
<defs>
<linearGradient id="paint0_linear_68_281" x1="133" y1="133" x2="133" y2="442" gradientUnits="userSpaceOnUse">
<stop stop-color="#FFC250"/>
<stop offset="0.3125" stop-color="#412EED"/>
<stop offset="0.552083" stop-color="#FFC250"/>
<stop offset="0.958333" stop-color="#4330ED"/>
</linearGradient>
<linearGradient id="paint1_linear_68_281" x1="150.5" y1="144.5" x2="133" y2="220" gradientUnits="userSpaceOnUse">
<stop stop-color="#FFCE31"/>
<stop offset="0.515625" stop-color="#FFCF5A"/>
<stop offset="1" stop-color="#FCA400"/>
</linearGradient>
<linearGradient id="paint2_linear_68_281" x1="270.5" y1="673.632" x2="822.5" y2="673.632" gradientUnits="userSpaceOnUse">
<stop stop-color="#2C18E5"/>
<stop offset="0.46875" stop-color="#5442F4"/>
<stop offset="1" stop-color="#5442F5"/>
</linearGradient>
<linearGradient id="paint3_linear_68_281" x1="270.5" y1="673.632" x2="822.5" y2="673.632" gradientUnits="userSpaceOnUse">
<stop stop-color="#2C18E5"/>
<stop offset="0.46875" stop-color="#5442F4"/>
<stop offset="1" stop-color="#5442F5"/>
</linearGradient>
</defs>
</svg>
