<svg width="73" height="72" viewBox="0 0 73 72" fill="none" xmlns="http://www.w3.org/2000/svg">
<path d="M18.509 2.36002L21.6253 0C22.1794 0.723652 35.3943 17.6023 54.7438 3.30529L57.0647 6.45421C50.5909 11.2329 44.6779 12.9736 39.4949 12.9736C26.7169 12.9345 18.6394 2.50344 18.509 2.36002Z" fill="white"/>
<path d="M64.1312 46.268C66.1837 47.8822 68.5543 49.0441 71.0874 49.6776L72.0132 45.8768C70.2811 45.4472 68.6462 44.6928 67.1953 43.6537C66.757 43.3524 66.3348 43.0281 65.9306 42.6823C61.882 39.2662 59.4112 34.2593 58.3876 31.7037C62.2852 29.8553 65.9688 27.5861 69.3728 24.9366L66.9932 21.8333C56.5035 29.8717 45.727 33.2162 34.9439 31.7624C16.0377 29.2133 3.24666 12.6149 3.12279 12.4454L1.56465 13.6255L0 14.8054C0.482435 15.4574 10.6396 28.6722 26.8338 33.9073C24.226 38.5882 16.3571 50.2905 0.951825 55.343L2.17095 59.059C14.4327 54.9877 24.6546 46.3489 30.7128 34.9373C31.9059 35.2046 33.1381 35.4328 34.3898 35.5892C36.2113 35.8363 38.0474 35.9605 39.8856 35.9609C41.5991 35.9607 43.3107 35.8497 45.0099 35.6284C44.8853 37.636 45.1215 39.6498 45.7074 41.5741C41.7292 42.3047 37.9221 43.7705 34.481 45.8964C20.7447 54.3716 17.4394 70.5658 17.309 71.2438L21.1489 72C21.1489 71.8501 24.2912 56.7837 36.5738 49.1821C39.8517 47.1806 43.495 45.8509 47.2916 45.2705C48.7644 47.8272 50.6986 50.0886 52.9961 51.9399C32.9164 54.3586 29.9435 71.133 29.9175 71.3155L33.7769 71.9674C33.8943 71.2764 36.9323 55.0171 59.2026 55.6038L68.7926 55.8645L60.0696 51.8681C56.7332 50.2391 53.8292 47.8444 51.5944 44.8794C55.817 44.771 60.0347 45.2382 64.1312 46.268ZM49.606 41.0916C48.9323 39.1279 48.7225 37.0348 48.9932 34.9764C50.9558 34.525 52.8856 33.9412 54.7694 33.2292C55.9563 36.1397 57.5096 38.887 59.3916 41.4046C56.1512 40.9407 52.8695 40.8358 49.606 41.0916Z" fill="white"/>
<path d="M9.02271 7.17156L10.646 6.08279L12.2694 4.98758C12.3541 5.11797 21.3965 18.261 35.6153 20.3733C44.1818 21.6446 52.9699 18.6913 61.7385 11.5982L64.2028 14.6428C56.034 21.2469 47.7609 24.5718 39.54 24.5718C38.0124 24.5737 36.4869 24.4604 34.9764 24.2328C19.0821 21.8467 9.42691 7.77134 9.02271 7.17156Z" fill="white"/>
</svg>
