<svg width="75" height="76" viewBox="0 0 75 76" fill="none" xmlns="http://www.w3.org/2000/svg">
<path d="M2.46659 33.4228L0 32.1127L17.0288 0L33.1966 32.1406L30.7021 33.3948L16.9636 6.08279L2.46659 33.4228Z" fill="#FF83D5"/>
<path d="M73.3861 34.1628H41.9929V3.04147H44.7853V31.3704H73.3861V34.1628Z" fill="#FF83D5"/>
<path d="M32.6708 42.5399H1.2334V45.3323H32.6708V42.5399Z" fill="#FF83D5"/>
<path d="M32.6708 57.6283H1.2334V60.4207H32.6708V57.6283Z" fill="#FF83D5"/>
<path d="M32.6708 72.7166H1.2334V75.509H32.6708V72.7166Z" fill="#FF83D5"/>
<path d="M60.0012 58.843L74.1934 73.0354L72.2178 75.0087L58.0279 60.8186L42.8467 76L40.8711 74.0267L56.0546 58.8453L41.2318 44.0223L43.205 42.049L58.0279 56.8697L72.8484 42.049L74.8217 44.0223L60.0012 58.843Z" fill="#FF83D5"/>
</svg>
