<svg width="53" height="72" viewBox="0 0 53 72" fill="none" xmlns="http://www.w3.org/2000/svg">
<path d="M52.063 18.3022C52.063 18.3022 51.0079 19.1656 50.7202 19.1656C48.9939 15.7987 47.2678 12.6043 45.2537 9.32372C45.2537 8.37408 44.2947 8.11523 42.8561 7.85624C37.2689 7.02084 31.6331 6.47316 25.9765 6.21593C25.0175 6.21593 24.7297 6.21571 24.7297 7.33801C24.7297 13.1222 23.7706 31.7697 23.7706 34.8777C29.525 34.8777 44.0069 35.482 48.1308 35.482C48.1308 36 48.1308 37.1224 47.1717 37.2088C42.3764 37.6404 30.9636 38.2446 24.442 38.6762C23.5788 38.6762 23.3869 38.6764 23.3869 39.626C23.3869 42.9929 23.3869 61.7267 23.3869 64.0576C23.3869 66.3886 23.9625 65.3527 24.8257 65.5254L32.5941 66.5613C32.5941 66.5613 33.2655 67.2518 33.2655 67.7698C29.717 67.7698 23.6747 67.7698 16.8653 67.7698C10.056 67.7698 5.83634 67.7698 2.096 67.7698C2.11913 67.2498 2.35857 66.7569 2.76712 66.3887L7.46672 65.6115C8.32987 65.6115 8.52164 65.18 8.61755 64.144C8.61755 60.5181 8.61755 40.0576 8.61755 35.741C8.61755 31.4245 8.61757 11.3093 8.04213 7.94239C8.04213 6.99275 8.04198 6.56124 6.98701 6.47491L2 5.52513C2 5.52513 2 4.7482 2 4.23022H9.86437H15.6185C39.4991 4.23022 50.2407 4.23022 51.967 4.23022C53.6933 4.23022 52.7344 4.2301 52.7344 4.92075L52.063 18.3022Z" fill="#FDFDFD"/>
</svg>
