<svg width="74" height="74" viewBox="0 0 74 74" fill="none" xmlns="http://www.w3.org/2000/svg">
<path d="M36.4432 73.998C16.0993 73.7905 -0.238915 56.9852 0.00264442 36.4697C0.242316 16.1013 17.0628 -0.27664 37.5641 0.00354198C57.8994 0.280894 74.2122 17.0229 73.998 37.5074C73.7857 57.8691 56.97 74.2074 36.4432 73.998ZM6.35301 36.9932C6.35301 53.873 20.0766 67.5916 36.965 67.6019C53.8231 67.6123 67.5656 53.8966 67.576 37.0508C67.5863 20.1861 53.8392 6.41376 36.9886 6.40905C20.1058 6.40339 6.35018 20.137 6.35301 36.9932Z" fill="#FFC200"/>
<path d="M29.7083 21.7851V15.3862H33.9648V21.7502H36.3634V15.391H40.6388V21.8153C41.2682 21.9097 41.8655 21.9927 42.4647 22.0983C44.1631 22.4106 45.7776 22.9276 47.2836 23.7964C51.7628 26.3699 51.1901 32.2019 47.8498 34.7509L47.3421 35.1405C47.7648 35.3235 48.1602 35.4622 48.5244 35.6593C51.1495 37.081 52.4875 39.2838 52.4988 42.2762C52.5106 43.4732 52.3247 44.664 51.9487 45.8006C50.9825 48.6647 48.8905 50.276 46.0626 51.0542C44.5038 51.4825 42.9082 51.6005 41.3003 51.6127H40.6973V58.1277H36.5323V51.6467H34.1092V58.1258H29.8394V51.6354H22.102V47.1166H24.678C26.2425 47.1166 26.6435 46.7166 26.6444 45.1355C26.6444 39.3671 26.6444 33.5981 26.6444 27.8284C26.6444 26.6435 26.284 26.2397 25.0894 26.1926C24.1166 26.1548 23.14 26.1803 22.1643 26.1775H21.6746V21.7899L29.7083 21.7851ZM33.9922 46.6289C34.045 46.6553 34.0724 46.6817 34.0998 46.6817C36.1549 46.6345 38.2166 46.6591 40.2642 46.5091C41.5853 46.4147 42.7902 45.86 43.6498 44.7648C45.4549 42.4677 44.6717 39.7479 41.9004 38.8876C40.9691 38.5979 39.9651 38.4696 38.9876 38.4215C37.4665 38.3451 35.9398 38.3998 34.4149 38.4017C34.279 38.4017 34.1432 38.4196 33.9922 38.431V46.6289ZM33.9922 33.999C35.6973 33.999 37.3476 34.0528 38.9932 33.9848C40.7785 33.9103 42.2816 32.4085 42.4703 30.6444C42.6845 28.6463 41.8504 27.4199 39.8538 26.8265C37.9364 26.2605 35.97 26.4869 33.9931 26.4379L33.9922 33.999Z" fill="#FFC200"/>
</svg>
